<svg width="24" height="24" viewBox="0 0 24 24" fill="none" xmlns="http://www.w3.org/2000/svg">
<path d="M14.5 12C14.5 11.337 14.2366 10.7011 13.7678 10.2322C13.2989 9.76339 12.663 9.5 12 9.5C11.337 9.5 10.7011 9.76339 10.2322 10.2322C9.76339 10.7011 9.5 11.337 9.5 12C9.5 13 10.09 13.84 10.93 14.25L9.82 15.35C9.09789 14.8797 8.54701 14.1887 8.24941 13.38C7.95181 12.5713 7.92342 11.688 8.16847 10.8619C8.41351 10.0357 8.91888 9.31077 9.6093 8.79507C10.2997 8.27938 11.1382 8.00051 12 8C12.8618 8.00051 13.7003 8.27938 14.3907 8.79507C15.0811 9.31077 15.5865 10.0357 15.8315 10.8619C16.0766 11.688 16.0482 12.5713 15.7506 13.38C15.453 14.1887 14.9021 14.8797 14.18 15.35L13.08 14.25C13.92 13.84 14.5 13 14.5 12ZM12 2C6.5 2 2 6.5 2 12C2 15.06 3.38 17.8 5.54 19.63L6.61 18.57C4.71 17 3.5 14.64 3.5 12C3.5 7.31 7.31 3.5 12 3.5C16.69 3.5 20.5 7.31 20.5 12C20.5 14.64 19.29 17 17.39 18.57L18.46 19.63C20.62 17.79 22 15.06 22 12C22 6.5 17.5 2 12 2ZM19 12C19 8.13 15.87 5 12 5C10.5443 4.9991 9.12453 5.45239 7.93865 6.2967C6.75278 7.141 5.85986 8.33425 5.38436 9.71013C4.90885 11.086 4.87446 12.576 5.28596 13.9723C5.69746 15.3687 6.53435 16.6019 7.68 17.5L8.75 16.43C7.39 15.42 6.5 13.82 6.5 12C6.5 8.97 8.97 6.5 12 6.5C15.03 6.5 17.5 8.97 17.5 12C17.5 13.82 16.61 15.42 15.25 16.43L16.33 17.5C17.1621 16.8449 17.8347 16.0096 18.2972 15.0569C18.7597 14.1042 19 13.059 19 12ZM6 22H18L12 16L6 22Z" fill="white"/>
</svg>
