<svg width="27" height="14" viewBox="0 0 27 14" fill="none" xmlns="http://www.w3.org/2000/svg">
<g opacity="0.3">
<path d="M0.665982 1.77772C0 2.78661 0 4.19108 0 7C0 9.80892 0 11.2134 0.665982 12.2223C0.954292 12.659 1.32477 13.034 1.75625 13.3259C2.75297 14 4.14047 14 6.91548 14H17.7827C20.5577 14 21.9452 14 22.9419 13.3259C23.3734 13.034 23.7438 12.659 24.0322 12.2223C24.6981 11.2134 24.6981 9.80892 24.6981 7C24.6981 4.19108 24.6981 2.78661 24.0322 1.77772C23.7438 1.34096 23.3734 0.965956 22.9419 0.674122C21.9452 0 20.5577 0 17.7827 0H6.91548C4.14047 0 2.75297 0 1.75625 0.674122C1.32477 0.965956 0.954292 1.34096 0.665982 1.77772Z" fill="black"/>
<path d="M27 6.75C27 7.62313 26.4822 8.41122 25.6861 8.75V4.75C26.4822 5.08878 27 5.87687 27 6.75Z" fill="black"/>
</g>
<path d="M0 7C0 4.19108 0 2.78661 0.674122 1.77772C0.965956 1.34096 1.34096 0.965956 1.77772 0.674122C2.78661 0 4.19108 0 7 0H17.7827V14H7C4.19108 14 2.78661 14 1.77772 13.3259C1.34096 13.034 0.965956 12.659 0.674122 12.2223C0 11.2134 0 9.80892 0 7Z" fill="#34C759"/>
<path d="M4.0542 11L7.35742 4.62988V4.53857H3.44727V3.24414H8.99023V4.55469L5.75146 11H4.0542ZM12.7549 11.1719C12.1318 11.1719 11.584 11.077 11.1113 10.8872C10.6387 10.6938 10.2699 10.4271 10.0049 10.0869C9.73991 9.74316 9.60742 9.34749 9.60742 8.8999V8.88916C9.60742 8.55257 9.68441 8.24821 9.83838 7.97607C9.99593 7.70394 10.2108 7.47835 10.4829 7.29932C10.755 7.1167 11.0666 6.99137 11.4175 6.92334V6.89111C10.9627 6.78011 10.5939 6.57243 10.311 6.26807C10.0317 5.96012 9.89209 5.59489 9.89209 5.17236V5.16162C9.89209 4.76058 10.0138 4.4043 10.2573 4.09277C10.5008 3.77767 10.8374 3.5306 11.2671 3.35156C11.6968 3.16895 12.1927 3.07764 12.7549 3.07764C13.3171 3.07764 13.813 3.16895 14.2427 3.35156C14.6724 3.5306 15.009 3.77767 15.2524 4.09277C15.4959 4.4043 15.6177 4.76058 15.6177 5.16162V5.17236C15.6177 5.59489 15.4762 5.96012 15.1934 6.26807C14.9105 6.57243 14.5435 6.78011 14.0923 6.89111V6.92334C14.4432 6.99137 14.7547 7.1167 15.0269 7.29932C15.299 7.47835 15.512 7.70394 15.666 7.97607C15.8236 8.24821 15.9023 8.55257 15.9023 8.88916V8.8999C15.9023 9.34749 15.7699 9.74316 15.5049 10.0869C15.2399 10.4271 14.8693 10.6938 14.3931 10.8872C13.9204 11.077 13.3743 11.1719 12.7549 11.1719ZM12.7549 9.99023C13.0378 9.99023 13.2884 9.9401 13.5068 9.83984C13.7253 9.736 13.8953 9.59456 14.0171 9.41553C14.1424 9.23291 14.2051 9.02523 14.2051 8.79248V8.78174C14.2051 8.54899 14.1442 8.3431 14.0225 8.16406C13.9007 7.98145 13.7306 7.83822 13.5122 7.73438C13.2938 7.63053 13.0413 7.57861 12.7549 7.57861C12.4684 7.57861 12.216 7.63053 11.9976 7.73438C11.7791 7.83822 11.6073 7.98145 11.4819 8.16406C11.3602 8.3431 11.2993 8.54899 11.2993 8.78174V8.79248C11.2993 9.02523 11.362 9.23291 11.4873 9.41553C11.6126 9.59456 11.7845 9.736 12.0029 9.83984C12.2214 9.9401 12.472 9.99023 12.7549 9.99023ZM12.7549 6.40234C13.002 6.40234 13.2204 6.35758 13.4102 6.26807C13.5999 6.17497 13.7467 6.04785 13.8506 5.88672C13.958 5.72559 14.0117 5.53939 14.0117 5.32812V5.31738C14.0117 5.10612 13.958 4.91992 13.8506 4.75879C13.7432 4.59766 13.5946 4.47233 13.4048 4.38281C13.2186 4.29329 13.002 4.24854 12.7549 4.24854C12.5078 4.24854 12.2894 4.29329 12.0996 4.38281C11.9098 4.47233 11.7612 4.59766 11.6538 4.75879C11.5464 4.91992 11.4927 5.10612 11.4927 5.31738V5.32812C11.4927 5.53939 11.5464 5.72559 11.6538 5.88672C11.7612 6.04785 11.9098 6.17497 12.0996 6.26807C12.2894 6.35758 12.5078 6.40234 12.7549 6.40234Z" fill="white"/>
<path d="M17.25 7.44171C17.25 7.35504 17.2827 7.27058 17.348 7.18835L20.5106 3.16127C20.5781 3.07904 20.6487 3.02903 20.7225 3.01125C20.7984 2.99125 20.8669 2.99792 20.9281 3.03125C20.9892 3.06459 21.0314 3.11904 21.0546 3.1946C21.0799 3.26794 21.0725 3.35684 21.0324 3.4613L20.0172 6.27492H21.9685C22.0508 6.27492 22.1182 6.30159 22.1709 6.35493C22.2236 6.40827 22.25 6.47495 22.25 6.55495C22.25 6.64163 22.2173 6.72608 22.152 6.80831L18.9894 10.8387C18.9219 10.921 18.8503 10.971 18.7744 10.9887C18.7006 11.0088 18.6331 11.0021 18.5719 10.9687C18.5108 10.9354 18.4686 10.881 18.4454 10.8054C18.4223 10.7298 18.4296 10.6398 18.4676 10.5354L19.4828 7.72174H17.5315C17.4513 7.72174 17.3839 7.69618 17.3291 7.64507C17.2764 7.59173 17.25 7.52394 17.25 7.44171Z" fill="white"/>
</svg>
