<svg width="260" height="260" viewBox="0 0 260 260" fill="none" xmlns="http://www.w3.org/2000/svg">
<rect width="260" height="260" rx="60" fill="#202020"/>
<circle cx="130" cy="130" r="113.75" fill="white"/>
<path d="M122.016 50H125.01V30.2715H121.988L116.793 33.9629V36.8613L121.947 33.3066H122.016V50ZM129.822 50H143.316V47.416H133.924V47.293L138.408 42.8906C141.949 39.3906 143.002 37.791 143.002 35.5352V35.5078C143.002 32.3223 140.295 29.9434 136.508 29.9434C132.652 29.9434 129.658 32.5 129.658 36.0273V36.1094H132.557V36.0273C132.584 34.0312 134.238 32.4727 136.549 32.4727C138.545 32.4727 139.967 33.8125 139.98 35.6855V35.7129C139.98 37.2441 139.393 38.2832 136.768 40.9082L129.822 47.8945V50Z" fill="#262626"/>
<path d="M130.137 229.328C134.293 229.328 137.342 226.498 137.342 222.561V222.533C137.342 218.801 134.621 216.053 130.848 216.053C128.168 216.053 126.172 217.447 125.393 219.225H125.324C125.324 219.047 125.324 218.869 125.338 218.691C125.461 214.781 126.842 211.514 130.232 211.514C132.119 211.514 133.404 212.443 133.965 213.92L134.006 214.057H137.082L137.041 213.893C136.412 210.953 133.773 208.943 130.26 208.943C125.324 208.943 122.385 212.826 122.385 219.402V219.43C122.385 226.525 126.104 229.328 130.137 229.328ZM125.926 222.574V222.561C125.926 220.223 127.744 218.541 130.137 218.541C132.543 218.541 134.293 220.236 134.293 222.615V222.643C134.293 224.939 132.434 226.758 130.096 226.758C127.758 226.758 125.926 224.912 125.926 222.574Z" fill="#262626"/>
<path d="M175.373 61.9907H178.367V42.2622H175.346L170.15 45.9536V48.8521L175.305 45.2974H175.373V61.9907Z" fill="#262626"/>
<path d="M80.015 217.259H83.2279L91.8002 200.183V197.531H78.3744V200.115H88.7787V200.183L80.015 217.259Z" fill="#262626"/>
<path d="M201.433 94.75H214.927V92.166H205.535V92.043L210.019 87.6406C213.56 84.1406 214.613 82.541 214.613 80.2852V80.2578C214.613 77.0723 211.906 74.6934 208.119 74.6934C204.263 74.6934 201.269 77.25 201.269 80.7773V80.8594H204.167V80.7773C204.195 78.7812 205.849 77.2227 208.16 77.2227C210.156 77.2227 211.578 78.5625 211.591 80.4355V80.4629C211.591 81.9941 211.003 83.0332 208.378 85.6582L201.433 92.6445V94.75Z" fill="#262626"/>
<path d="M52.2407 185.011C56.6157 185.011 59.6919 182.673 59.6919 179.337V179.31C59.6919 176.822 57.9146 174.853 55.3442 174.292V174.224C57.5454 173.595 58.981 171.954 58.981 169.863V169.835C58.981 166.828 56.1646 164.626 52.2407 164.626C48.3169 164.626 45.5142 166.828 45.5142 169.835V169.863C45.5142 171.954 46.9497 173.595 49.1509 174.224V174.292C46.5806 174.853 44.7896 176.822 44.7896 179.31V179.337C44.7896 182.673 47.8794 185.011 52.2407 185.011ZM52.2407 173.199C50.0532 173.199 48.5493 171.927 48.5493 170.136V170.109C48.5493 168.304 50.0532 167.046 52.2407 167.046C54.4282 167.046 55.9458 168.304 55.9458 170.109V170.136C55.9458 171.927 54.4419 173.199 52.2407 173.199ZM52.2407 182.564C49.7251 182.564 47.9341 181.128 47.9341 179.132V179.105C47.9341 177.095 49.7114 175.646 52.2407 175.646C54.77 175.646 56.5474 177.095 56.5474 179.105V179.132C56.5474 181.128 54.7563 182.564 52.2407 182.564Z" fill="#262626"/>
<path d="M219.945 139.828C224.129 139.828 227.096 137.422 227.096 134.045V134.018C227.096 131.256 225.154 129.506 222.256 129.246V129.178C224.662 128.672 226.412 127.031 226.412 124.584V124.557C226.412 121.521 223.842 119.443 219.918 119.443C216.062 119.443 213.438 121.617 213.137 124.912L213.123 125.049H215.994L216.008 124.926C216.199 123.094 217.73 121.945 219.918 121.945C222.146 121.945 223.432 123.053 223.432 124.953V124.98C223.432 126.812 221.9 128.139 219.645 128.139H217.334V130.518H219.727C222.365 130.518 223.979 131.762 223.979 133.99V134.018C223.979 135.932 222.352 137.271 219.945 137.271C217.498 137.271 215.844 136.041 215.652 134.291L215.639 134.141H212.699L212.713 134.318C212.986 137.531 215.734 139.828 219.945 139.828Z" fill="#262626"/>
<path d="M39.8634 119.943C35.6935 119.943 32.6447 122.773 32.6447 126.711V126.738C32.6447 130.471 35.379 133.219 39.1525 133.219C41.8322 133.219 43.8282 131.824 44.6075 130.047H44.6759C44.6759 130.225 44.6759 130.402 44.6622 130.58C44.5392 134.49 43.1583 137.758 39.7677 137.758C37.881 137.758 36.5958 136.828 36.0353 135.352L35.9806 135.215H32.9181L32.9591 135.379C33.588 138.318 36.2267 140.328 39.7404 140.328C44.6759 140.328 47.6154 136.445 47.6154 129.869V129.842C47.6154 122.746 43.8966 119.943 39.8634 119.943ZM39.8497 130.73C37.4572 130.73 35.6935 129.035 35.6935 126.656V126.629C35.6935 124.332 37.5665 122.514 39.8907 122.514C42.2423 122.514 44.0743 124.359 44.0743 126.697V126.711C44.0743 129.049 42.256 130.73 39.8497 130.73Z" fill="#262626"/>
<path d="M208.988 184.683H211.927V180.759H214.648V178.189H211.927V164.954H207.498L199.117 178.093V180.759H208.988V184.683ZM201.961 178.23V178.148L208.933 167.374H209.015V178.23H201.961Z" fill="#262626"/>
<path d="M44.3773 94.75H47.3715V75.0215H44.35L39.1547 78.7129V81.6113L44.309 78.0566H44.3773V94.75ZM59.389 95.0781C64.0922 95.0781 66.9222 91.1543 66.9222 84.8926V84.8652C66.9222 78.6035 64.0922 74.6934 59.389 74.6934C54.6722 74.6934 51.8558 78.6035 51.8558 84.8652V84.8926C51.8558 91.1543 54.6722 95.0781 59.389 95.0781ZM59.389 92.5215C56.5726 92.5215 54.9457 89.623 54.9457 84.8926V84.8652C54.9457 80.1348 56.5726 77.2637 59.389 77.2637C62.1918 77.2637 63.8324 80.1348 63.8324 84.8652V84.8926C63.8324 89.623 62.1918 92.5215 59.389 92.5215Z" fill="#262626"/>
<path d="M175.441 217.337C179.693 217.337 182.687 214.562 182.687 210.556L182.687 210.529C182.687 206.755 179.967 204.035 176.193 204.035C174.252 204.035 172.611 204.787 171.723 206.113L171.654 206.113L172.256 199.865L181.539 199.865L181.539 197.281L169.781 197.281L168.811 208.656L171.49 208.656C171.75 208.218 172.064 207.835 172.434 207.521C173.227 206.81 174.279 206.455 175.496 206.455C177.943 206.455 179.68 208.164 179.693 210.583L179.693 210.611C179.693 213.058 177.957 214.781 175.469 214.781C173.268 214.781 171.654 213.414 171.395 211.636L171.381 211.527L168.455 211.527L168.469 211.691C168.742 214.945 171.49 217.337 175.441 217.337Z" fill="#262626"/>
<path d="M78.0416 62.2407H81.0358V42.5122H78.0143L72.819 46.2036V49.1021L77.9733 45.5474H78.0416V62.2407ZM90.8385 62.2407H93.8326V42.5122H90.8112L85.6158 46.2036V49.1021L90.7701 45.5474H90.8385V62.2407Z" fill="#262626"/>
<circle cx="130" cy="130" r="4" stroke="#262626" stroke-width="4"/>
<rect x="201.783" y="60.2764" width="8" height="84" rx="4" transform="rotate(48 201.783 60.2764)" fill="#262626"/>
<rect x="192.717" y="71.1305" width="4" height="82" rx="2" transform="rotate(48 192.717 71.1305)" fill="#262626"/>
<rect width="8" height="48.72" rx="4" transform="matrix(-0.5 0.866025 0.866025 0.5 81.8271 97.5686)" fill="#262626"/>
<rect width="4" height="46" rx="2" transform="matrix(-0.5 0.866025 0.866025 0.5 87.8593 103.361)" fill="#262626"/>
<path fill-rule="evenodd" clip-rule="evenodd" d="M138.794 114.768C139.751 115.32 140.079 116.543 139.526 117.5L133.464 127.999C133.805 128.588 134 129.271 134 130C134 132.209 132.209 134 130 134L80.7321 219.335C80.1798 220.291 78.9566 220.619 78 220.067C77.0434 219.514 76.7157 218.291 77.268 217.335L126.536 132.001C126.195 131.412 126 130.729 126 130C126 127.791 127.791 126 130 126L136.062 115.5C136.614 114.543 137.838 114.216 138.794 114.768ZM130 132C131.105 132 132 131.105 132 130C132 128.895 131.105 128 130 128C128.895 128 128 128.895 128 130C128 131.105 128.895 132 130 132Z" fill="#EF8732"/>
</svg>
