<svg width="21" height="14" viewBox="0 0 21 14" fill="none" xmlns="http://www.w3.org/2000/svg">
<path d="M4.85742 9.69287C2.52393 9.69287 0.869385 8.04492 0.869385 5.69824C0.869385 3.35156 2.52393 1.70361 4.85742 1.70361H10.8164C13.1433 1.70361 14.8044 3.35156 14.8044 5.69824C14.8044 8.04492 13.1433 9.69287 10.8164 9.69287H8.87842C8.54883 9.3501 8.52246 8.60522 8.77295 8.32837H10.7439C12.2798 8.32837 13.3674 7.24731 13.3674 5.69824C13.3674 4.15576 12.2798 3.06812 10.7439 3.06812H4.92993C3.39404 3.06812 2.3064 4.15576 2.3064 5.69824C2.3064 7.24731 3.39404 8.32837 4.92993 8.32837H5.2793C5.2002 8.73706 5.23315 9.23145 5.29248 9.69287H4.85742ZM10.1836 12.8438C7.8501 12.8438 6.19556 11.1958 6.19556 8.84912C6.19556 6.50244 7.8501 4.85449 10.1836 4.85449H12.115C12.4248 5.19727 12.4512 5.91577 12.2271 6.21899H10.2561C8.72021 6.21899 7.63257 7.30005 7.63257 8.84912C7.63257 10.3916 8.72021 11.4792 10.2561 11.4792H16.0701C17.606 11.4792 18.6936 10.3916 18.6936 8.84912C18.6936 7.30005 17.606 6.21899 16.0701 6.21899H15.7207C15.7998 5.80371 15.7734 5.31592 15.7075 4.85449H16.1426C18.4761 4.85449 20.1306 6.50244 20.1306 8.84912C20.1306 11.1958 18.4761 12.8438 16.1426 12.8438H10.1836Z" fill="white"/>
</svg>
