<svg width="15" height="14" viewBox="0 0 15 14" fill="none" xmlns="http://www.w3.org/2000/svg">
<path d="M2.50071 7.55451C2.26986 7.55045 2.07749 7.49964 1.92359 7.40208C1.77374 7.30046 1.66237 7.17241 1.58947 7.01794C1.51657 6.85941 1.48822 6.69275 1.50442 6.51796C1.52062 6.3391 1.58137 6.17447 1.68667 6.02407C1.79197 5.86961 1.94789 5.74563 2.15444 5.65213L11.8743 1.15837C12.1538 1.03235 12.411 0.981543 12.6459 1.00593C12.8808 1.02626 13.0731 1.10959 13.223 1.25592C13.3728 1.3982 13.4619 1.58518 13.4903 1.81688C13.5227 2.04452 13.4741 2.30061 13.3445 2.58515L8.8794 12.3044C8.7822 12.5239 8.65463 12.6885 8.49668 12.7983C8.33873 12.9121 8.17066 12.9771 7.99246 12.9934C7.81426 13.0137 7.64619 12.9873 7.48824 12.9141C7.33029 12.8409 7.20271 12.7271 7.10552 12.5727C7.00832 12.4223 6.95972 12.2353 6.95972 12.0117L6.94757 7.66427C6.94757 7.59923 6.91517 7.56671 6.85037 7.56671L2.50071 7.55451Z" fill="white"/>
</svg>
