<svg width="19" height="14" viewBox="0 0 19 14" fill="none" xmlns="http://www.w3.org/2000/svg">
<path d="M1.66667 9H2.83333C3.47767 9 4 9.50368 4 10.125V12.375C4 12.9963 3.47767 13.5 2.83333 13.5H1.66667C1.02233 13.5 0.5 12.9963 0.5 12.375V10.125C0.5 9.50368 1.02233 9 1.66667 9Z" fill="white"/>
<path d="M6.66667 7H7.83333C8.47767 7 9 7.50368 9 8.125V12.375C9 12.9963 8.47767 13.5 7.83333 13.5H6.66667C6.02233 13.5 5.5 12.9963 5.5 12.375V8.125C5.5 7.50368 6.02233 7 6.66667 7Z" fill="white"/>
<path opacity="0.2" d="M11.6667 4H12.8333C13.4777 4 14 4.50368 14 5.125V12.375C14 12.9963 13.4777 13.5 12.8333 13.5H11.6667C11.0223 13.5 10.5 12.9963 10.5 12.375V5.125C10.5 4.50368 11.0223 4 11.6667 4Z" fill="white"/>
<path opacity="0.2" d="M16.6667 1H17.8333C18.4777 1 19 1.50368 19 2.125V12.375C19 12.9963 18.4777 13.5 17.8333 13.5H16.6667C16.0223 13.5 15.5 12.9963 15.5 12.375V2.125C15.5 1.50368 16.0223 1 16.6667 1Z" fill="white"/>
</svg>
