<svg width="29" height="25" viewBox="0 0 29 25" fill="none" xmlns="http://www.w3.org/2000/svg">
<path d="M2.88702 24.0574H6.25417C7.539 24.0574 8.21834 23.378 8.21834 22.0784V12.5825C8.17403 12.4053 8.14449 12.2133 8.14449 12.0213C8.14449 11.8145 8.17403 11.6226 8.21834 11.4453V1.96417C8.21834 0.620264 7.539 0 6.25417 0H2.88702C1.60219 0 0.922852 0.679337 0.922852 1.96417V22.0784C0.922852 23.378 1.60219 24.0574 2.88702 24.0574ZM26.3832 23.6143C27.5499 23.6143 28.5098 22.743 28.5098 21.089V2.95364C28.5098 1.2996 27.5499 0.413509 26.3832 0.413509C25.7777 0.413509 25.2904 0.605496 24.6849 0.959932L9.63608 9.82084C8.8386 10.2934 8.38079 10.8398 8.21834 11.4453V12.5825C8.38079 13.2028 8.8386 13.7344 9.63608 14.2218L24.6849 23.0679C25.2904 23.4223 25.7777 23.6143 26.3832 23.6143Z" fill="#ffffff"/>
</svg>
