<svg width="28" height="25" viewBox="0 0 28 25" fill="none" xmlns="http://www.w3.org/2000/svg">
<path d="M2.12174 23.6143C2.72723 23.6143 3.21458 23.4223 3.82008 23.0679L18.8689 14.2218C19.6663 13.7344 20.1242 13.2028 20.2866 12.5825V22.0784C20.2866 23.378 20.9659 24.0574 22.2508 24.0574H25.6179C26.9175 24.0574 27.5821 23.378 27.5821 22.0784V1.96417C27.5821 0.620264 26.9175 0 25.6179 0H22.2508C20.9659 0 20.2866 0.679337 20.2866 1.96417V11.4453C20.1242 10.8398 19.6663 10.2934 18.8689 9.82084L3.82008 0.959932C3.21458 0.605496 2.72723 0.413509 2.12174 0.413509C0.955049 0.413509 -0.00488281 1.2996 -0.00488281 2.95364V21.089C-0.00488281 22.743 0.955049 23.6143 2.12174 23.6143Z" fill="#ffffff"/>
</svg>
